<svg width="32" height="32" viewBox="0 0 32 32" fill="none" xmlns="http://www.w3.org/2000/svg">
<g clip-path="url(#clip0_77002_14848)">
<path d="M15.0176 1.00807C14.9531 1.01394 14.7478 1.03446 14.563 1.04912C10.3021 1.43323 6.31085 3.73201 3.78299 7.26522C2.37537 9.22974 1.47507 11.4582 1.1349 13.8185C1.01466 14.6424 1 14.8858 1 16.0029C1 17.1201 1.01466 17.3634 1.1349 18.1874C1.95015 23.82 5.95894 28.5524 11.3959 30.3058C12.3695 30.6196 13.3959 30.8336 14.563 30.9626C15.0176 31.0125 16.9824 31.0125 17.437 30.9626C19.4516 30.7398 21.1584 30.2413 22.8416 29.3822C23.0997 29.2503 23.1496 29.2151 23.1144 29.1858C23.0909 29.1682 21.9912 27.6933 20.6716 25.9106L18.2727 22.6706L15.2669 18.2226C13.6129 15.7772 12.2522 13.7775 12.2405 13.7775C12.2287 13.7745 12.217 15.7508 12.2111 18.1639C12.2023 22.3891 12.1994 22.5592 12.1466 22.6588C12.0704 22.8025 12.0117 22.8612 11.8886 22.9257C11.7947 22.9726 11.7126 22.9814 11.2698 22.9814H10.7625L10.6276 22.8964C10.5396 22.8406 10.4751 22.7673 10.4311 22.6823L10.3695 22.5504L10.3754 16.6715L10.3842 10.7896L10.4751 10.6753C10.522 10.6137 10.6217 10.5345 10.6921 10.4964C10.8123 10.4378 10.8592 10.4319 11.3666 10.4319C11.9648 10.4319 12.0645 10.4554 12.2199 10.6254C12.2639 10.6723 13.8915 13.1236 15.8387 16.0762C17.7859 19.0289 20.4487 23.0606 21.7566 25.0397L24.132 28.6374L24.2522 28.5583C25.3167 27.8663 26.4428 26.8811 27.3343 25.8549C29.2317 23.6763 30.4545 21.0198 30.8651 18.1874C30.9853 17.3634 31 17.1201 31 16.0029C31 14.8858 30.9853 14.6424 30.8651 13.8185C30.0499 8.1859 26.0411 3.45346 20.6041 1.70005C19.6452 1.38925 18.6246 1.1752 17.4809 1.04619C17.1994 1.01687 15.261 0.984616 15.0176 1.00807ZM21.1584 10.0801C21.2991 10.1504 21.4135 10.2853 21.4545 10.426C21.478 10.5023 21.4839 12.1325 21.478 15.8065L21.4692 21.0784L20.5396 19.6534L19.607 18.2284V14.3961C19.607 11.9185 19.6188 10.5257 19.6364 10.4583C19.6833 10.2941 19.7859 10.1651 19.9267 10.0889C20.0469 10.0273 20.0909 10.0214 20.5513 10.0214C20.9853 10.0214 21.0616 10.0273 21.1584 10.0801Z" fill="white"/>
</g>
<defs>
<clipPath id="clip0_77002_14848">
<rect width="30" height="30" fill="white" transform="translate(1 1)"/>
</clipPath>
</defs>
</svg>
